<svg xmlns="http://www.w3.org/2000/svg" viewBox="0 0 229 46">
  <defs>
    <linearGradient id="blueGrad" x1="0" y1="0" x2="0" y2="1">
      <stop offset="0%" stop-color="#3C78A9"/>
      <stop offset="100%" stop-color="#306998"/>
    </linearGradient>
    <linearGradient id="yellowGrad" x1="0" y1="0" x2="0" y2="1">
      <stop offset="0%" stop-color="#FFE873"/>
      <stop offset="100%" stop-color="#FFD43B"/>
    </linearGradient>
  </defs>
  <!-- Python icon: two intertwined snake circles -->
  <g transform="translate(3, 3)">
    <!-- Blue snake (upper-left body) -->
    <path d="M20 1C13 1 8 3 8 7v5h11v1.5H7C3 13.5 0 17 0 22c0 5 3 8 7 8h3v-5c0-3.5 3-6.5 7-6.5h11c3.5 0 6-2.5 6-6V7c0-4-5-6-14-6zm-6.5 3.5a1.8 1.8 0 1 1 0 3.6 1.8 1.8 0 0 1 0-3.6z" fill="url(#blueGrad)"/>
    <!-- Yellow snake (lower-right body) -->
    <path d="M24 13.5c-4 0-7 3-7 6.5v5c0 4 5 6 14 6h6c7 0 12-2 12-6v-5H38v-1.5h11c4 0 7-3 7-8s-3-8-7-8h-3v5c0 3.5-3 6.5-7 6.5H24zm15.5 7a1.8 1.8 0 1 1 0 3.6 1.8 1.8 0 0 1 0-3.6z" fill="url(#yellowGrad)"/>
  </g>
  <!-- "Petclinic" text -->
  <text x="58" y="31" font-family="'Segoe UI', Roboto, Helvetica, Arial, sans-serif" font-size="23" font-weight="600" fill="#ffffff" letter-spacing="0.5">Petclinic</text>
</svg>
