<svg xmlns="http://www.w3.org/2000/svg" viewBox="0 0 200 42">
  <defs>
    <linearGradient id="blueGradF" x1="0" y1="0" x2="0" y2="1">
      <stop offset="0%" stop-color="#3C78A9"/>
      <stop offset="100%" stop-color="#306998"/>
    </linearGradient>
    <linearGradient id="yellowGradF" x1="0" y1="0" x2="0" y2="1">
      <stop offset="0%" stop-color="#FFE873"/>
      <stop offset="100%" stop-color="#FFD43B"/>
    </linearGradient>
  </defs>
  <!-- "Powered by" small text -->
  <text x="4" y="11" font-family="'Segoe UI', Roboto, Helvetica, Arial, sans-serif" font-size="9" fill="#8a9bae" letter-spacing="0.5">Powered by</text>
  <!-- Python icon (compact) -->
  <g transform="translate(4, 14) scale(0.52)">
    <!-- Blue snake -->
    <path d="M20 1C13 1 8 3 8 7v5h11v1.5H7C3 13.5 0 17 0 22c0 5 3 8 7 8h3v-5c0-3.5 3-6.5 7-6.5h11c3.5 0 6-2.5 6-6V7c0-4-5-6-14-6zm-6.5 3.5a1.8 1.8 0 1 1 0 3.6 1.8 1.8 0 0 1 0-3.6z" fill="url(#blueGradF)"/>
    <!-- Yellow snake -->
    <path d="M24 13.5c-4 0-7 3-7 6.5v5c0 4 5 6 14 6h6c7 0 12-2 12-6v-5H38v-1.5h11c4 0 7-3 7-8s-3-8-7-8h-3v5c0 3.5-3 6.5-7 6.5H24zm15.5 7a1.8 1.8 0 1 1 0 3.6 1.8 1.8 0 0 1 0-3.6z" fill="url(#yellowGradF)"/>
  </g>
  <!-- FastAPI lightning bolt icon -->
  <g transform="translate(34, 15)">
    <path d="M11 2L3 14h6l-2 10 10-14h-6z" fill="#009688"/>
  </g>
  <!-- "FastAPI" text -->
  <text x="56" y="34" font-family="'Segoe UI', Roboto, Helvetica, Arial, sans-serif" font-size="18" font-weight="700" letter-spacing="0.3">
    <tspan fill="#306998">Fast</tspan><tspan fill="#009688">API</tspan>
  </text>
</svg>
